<svg width="13" height="14" viewBox="0 0 13 14" fill="none" xmlns="http://www.w3.org/2000/svg">
<path d="M10.7713 11.541H2.80851C2.69992 11.541 2.59134 11.4599 2.51895 11.3787C2.44656 11.2976 2.44656 11.1353 2.48276 11.0136L3.17045 9.06594L2.48276 1.80296H0.274902V0.991455H2.80851C2.98948 0.991455 3.13425 1.15376 3.17045 1.35663L3.89434 9.06594C3.89434 9.14709 3.89434 9.18767 3.85814 9.26882L3.35142 10.7295H11.1332L10.7713 11.541Z" fill="white" fill-opacity="0.8"/>
<path d="M3.60502 9.51231L3.46024 8.7008L11.8573 6.75318V3.42601H3.17068V2.6145H12.2193C12.4364 2.6145 12.5812 2.7768 12.5812 3.02026V7.07779C12.5812 7.28066 12.4726 7.44296 12.2917 7.48354L3.60502 9.51231ZM11.1334 13.9756C10.3372 13.9756 9.68566 13.2452 9.68566 12.3526C9.68566 11.4599 10.3372 10.7296 11.1334 10.7296C11.9297 10.7296 12.5812 11.4599 12.5812 12.3526C12.5812 13.2452 11.9297 13.9756 11.1334 13.9756ZM11.1334 11.5411C10.7353 11.5411 10.4096 11.9062 10.4096 12.3526C10.4096 12.7989 10.7353 13.1641 11.1334 13.1641C11.5316 13.1641 11.8573 12.7989 11.8573 12.3526C11.8573 11.9062 11.5316 11.5411 11.1334 11.5411ZM2.4468 13.9756C1.65052 13.9756 0.999023 13.2452 0.999023 12.3526C0.999023 11.4599 1.65052 10.7296 2.4468 10.7296C3.24307 10.7296 3.89457 11.4599 3.89457 12.3526C3.89457 13.2452 3.24307 13.9756 2.4468 13.9756ZM2.4468 11.5411C2.04866 11.5411 1.72291 11.9062 1.72291 12.3526C1.72291 12.7989 2.04866 13.1641 2.4468 13.1641C2.84493 13.1641 3.17068 12.7989 3.17068 12.3526C3.17068 11.9062 2.84493 11.5411 2.4468 11.5411Z" fill="white" fill-opacity="0.8"/>
</svg>
