<svg width="18" height="13" viewBox="0 0 18 13" fill="none" xmlns="http://www.w3.org/2000/svg">
<path d="M1 12.9756C0.716667 12.9756 0.479333 12.8797 0.288 12.6879C0.0960001 12.4968 0 12.2598 0 11.9768C0 11.6938 0.0960001 11.4568 0.288 11.2657C0.479333 11.0739 0.716667 10.978 1 10.978H17C17.2833 10.978 17.5207 11.0739 17.712 11.2657C17.904 11.4568 18 11.6938 18 11.9768C18 12.2598 17.904 12.4968 17.712 12.6879C17.5207 12.8797 17.2833 12.9756 17 12.9756H1ZM1 7.98167C0.716667 7.98167 0.479333 7.88579 0.288 7.69403C0.0960001 7.50293 0 7.26588 0 6.9829C0 6.69991 0.0960001 6.46253 0.288 6.27077C0.479333 6.07967 0.716667 5.98412 1 5.98412H17C17.2833 5.98412 17.5207 6.07967 17.712 6.27077C17.904 6.46253 18 6.69991 18 6.9829C18 7.26588 17.904 7.50293 17.712 7.69403C17.5207 7.88579 17.2833 7.98167 17 7.98167H1ZM1 2.98779C0.716667 2.98779 0.479333 2.89224 0.288 2.70114C0.0960001 2.50937 0 2.272 0 1.98901C0 1.70602 0.0960001 1.46865 0.288 1.27688C0.479333 1.08578 0.716667 0.990234 1 0.990234H17C17.2833 0.990234 17.5207 1.08578 17.712 1.27688C17.904 1.46865 18 1.70602 18 1.98901C18 2.272 17.904 2.50937 17.712 2.70114C17.5207 2.89224 17.2833 2.98779 17 2.98779H1Z" fill="white" fill-opacity="0.8"/>
</svg>
